<?xml version="1.0" standalone="no"?><!DOCTYPE svg PUBLIC "-//W3C//DTD SVG 1.1//EN" "http://www.w3.org/Graphics/SVG/1.1/DTD/svg11.dtd"><svg t="1708507292958" class="icon" viewBox="0 0 1024 1024" version="1.1" xmlns="http://www.w3.org/2000/svg" p-id="6322" xmlns:xlink="http://www.w3.org/1999/xlink" width="200" height="200"><path d="M1024.986006 972.996729a49.304463 49.304463 0 0 1-49.221598 49.387328l-924.761137 1.61586a49.304463 49.304463 0 0 1-49.387328-49.221598L0.000083 51.003271A49.304463 49.304463 0 0 1 49.221681 1.615943L973.991105 0.000083a49.304463 49.304463 0 0 1 49.387327 49.221598l1.607574 923.775048zM173.576652 118.960565a53.613424 53.613424 0 1 0-107.226849 0 53.613424 53.613424 0 0 0 107.226849 0z m784.81104 0.16573a53.53056 53.53056 0 1 0-107.061119 0 53.53056 53.53056 0 0 0 107.061119 0z m-671.576504 145.178855a37.454819 37.454819 0 0 0-37.322236-37.579116l-69.440571-0.248593a37.454819 37.454819 0 0 0-37.587403 37.330521l-0.082864 24.527935a37.454819 37.454819 0 0 0 37.322235 37.587402l69.440572 0.240308a37.454819 37.454819 0 0 0 37.587402-37.322236l0.082865-24.527934z m595.631058-0.828646a37.12336 37.12336 0 0 0-37.255943-36.990777l-70.103489 0.248594a37.12336 37.12336 0 0 0-36.990777 37.247657l0.082865 25.190852a37.12336 37.12336 0 0 0 37.255943 36.990777l70.103489-0.248594a37.12336 37.12336 0 0 0 36.999063-37.247657l-0.091151-25.190852z m-500.54388-3.56318c-58.005251 0.165729-62.314212 54.359206-54.939259 97.283092 0.720922 4.159805-0.165729 8.427334-2.419647 11.60105-2.253918 3.190289-5.626509 4.955306-9.181403 4.806149-42.592427-1.657293-88.748033-1.07724-88.748033 55.685041-0.049719 120.650921-0.024859 241.334988 0.082865 362.035628 0 36.211849 22.539183 50.381703 57.508062 50.464568 153.415601 0.165729 306.822916 0.14087 460.230231-0.082864 42.095239-0.082865 54.027748-22.787777 53.944883-62.97713 0-117.551784-0.024859-235.111854-0.082864-352.671923 0-54.690665-48.807275-52.121861-88.49944-52.784778a9.197975 9.197975 0 0 1-9.032246-8.037871c-8.2036-62.894265 13.424072-105.403827-74.329585-105.486691-81.538809-0.049719-163.044473 0-244.533564 0.165729z m-208.155985 644.18974a53.696289 53.696289 0 1 0-107.392578 0 53.696289 53.696289 0 0 0 107.392578 0z m784.893905-0.082864a53.613424 53.613424 0 1 0-107.226849 0 53.613424 53.613424 0 0 0 107.226849 0z" fill="#4B6182" p-id="6323"></path><path d="M119.963228 118.968852m-53.613425 0a53.613424 53.613424 0 1 0 107.226849 0 53.613424 53.613424 0 1 0-107.226849 0Z" fill="#6580A6" p-id="6324"></path><path d="M904.857132 119.134581m-53.530559 0a53.53056 53.53056 0 1 0 107.061119 0 53.53056 53.53056 0 1 0-107.061119 0Z" fill="#6580A6" p-id="6325"></path><path d="M142.593537 226.358389m37.45459 0.130741l69.440149 0.242393q37.454591 0.130742 37.323849 37.585333l-0.085619 24.527785q-0.130742 37.454591-37.585332 37.323849l-69.440149-0.242393q-37.454591-0.130742-37.323849-37.585332l0.085619-24.527786q0.130742-37.454591 37.585332-37.323849Z" fill="#E2F0FA" p-id="6326"></path><path d="M737.960358 226.862265m37.123134-0.129585l70.103062-0.244707q37.123134-0.129585 37.252719 36.99355l0.087932 25.190698q0.129585 37.123134-36.993549 37.252719l-70.103062 0.244707q-37.123134 0.129585-37.252719-36.99355l-0.087932-25.190698q-0.129585-37.123134 36.993549-37.252719Z" fill="#E2F0FA" p-id="6327"></path><path d="M326.959107 357.204702c-7.374953-42.923885-3.065992-97.117362 54.939259-97.283091 81.489091-0.165729 162.994754-0.215448 244.533564-0.16573 87.753658 0.082865 66.125986 42.592427 74.329585 105.486692 0.580053 4.557555 4.441545 7.996438 9.032246 8.03787 39.692164 0.662917 88.499439-1.905887 88.49944 52.784778 0.058005 117.56007 0.082865 235.12014 0.082864 352.671924 0.082865 40.189352-11.849644 62.894265-53.944883 62.977129-153.407315 0.223735-306.81463 0.248594-460.230231 0.082865-34.96888-0.082865-57.508063-14.252719-57.508062-50.464568-0.107724-120.70064-0.132583-241.384707-0.082865-362.035629 0-56.762281 46.155607-57.342333 88.748033-55.68504 3.56318 0.149156 6.927484-1.615861 9.181403-4.80615 2.253918-3.173716 3.148856-7.441245 2.419647-11.60105z m108.967007 37.040496c-31.654294 0.248594-43.669667 26.350957-39.112112 54.193477 0.604912 3.521747-0.497188 7.126359-2.983127 9.711736a11.48504 11.48504 0 0 1-9.612299 3.463742c-38.532059-4.557555-47.812899 22.870642-47.812899 56.182229v181.30784c0 33.311587 6.96063 53.281966 43.503938 53.447695 89.278367 0.555193 178.523588 0.886652 267.735663 0.994376 17.956768 0.058005 29.499813-5.88339 34.637422-17.815898a76.351483 76.351483 0 0 0 6.214848-29.914137c0.223735-64.576417 0.198875-127.280093-0.082865-188.102741-0.165729-33.643045-6.877765-57.342333-45.32696-55.187853-6.42201 0.331459-12.015373-4.574128-12.761155-11.186726l-3.56318-34.305963c-1.541282-14.526172-12.181103-21.925985-31.902888-22.207724-53.083091-0.662917-106.066744-0.853506-158.934386-0.580053z" fill="#E2F0FA" p-id="6328"></path><path d="M120.046092 904.111351m-53.696289 0a53.696289 53.696289 0 1 0 107.392578 0 53.696289 53.696289 0 1 0-107.392578 0Z" fill="#6580A6" p-id="6329"></path><path d="M905.022862 904.028486m-53.613425 0a53.613424 53.613424 0 1 0 107.226849 0 53.613424 53.613424 0 1 0-107.226849 0Z" fill="#6580A6" p-id="6330"></path><path d="M396.814002 448.438675c-4.557555-27.84252 7.457818-53.944883 39.112112-54.193477 52.867643-0.273453 105.851296-0.082865 158.934386 0.580053 19.721785 0.28174 30.361605 7.681552 31.902888 22.207724l3.56318 34.305963c0.745782 6.612599 6.339145 11.518185 12.761155 11.186726 38.449195-2.154481 45.161231 21.544807 45.32696 55.187853 0.28174 60.822648 0.306599 123.526324 0.082865 188.102741a76.351483 76.351483 0 0 1-6.214848 29.914137c-5.137608 11.932509-16.680653 17.873904-34.637422 17.815898a54139.150906 54139.150906 0 0 1-267.735663-0.994376c-36.543308-0.165729-43.503938-20.136108-43.503938-53.447695v-181.30784c0-33.311587 9.28084-60.739784 47.812899-56.182229 3.579753 0.414323 7.134646-0.870079 9.612299-3.463742 2.485939-2.585377 3.588039-6.189989 2.983127-9.711736z m40.57053 123.816351a13.755531 13.755531 0 0 0-13.896401-13.614661l-2.154481 0.024859a13.755531 13.755531 0 0 0-13.614661 13.896401l0.894938 85.516312a13.755531 13.755531 0 0 0 13.904688 13.606375l2.15448-0.016573a13.755531 13.755531 0 0 0 13.606375-13.904688l-0.894938-85.516312z m178.614739 0.041432a13.92126 13.92126 0 0 0-13.946119-13.896401h-0.994376a13.92126 13.92126 0 0 0-13.896401 13.94612l0.149156 85.682041a13.92126 13.92126 0 0 0 13.94612 13.896401h0.994376a13.92126 13.92126 0 0 0 13.8964-13.946119l-0.149156-85.682042z m-87.579642 0.389464a12.761155 12.761155 0 0 0-12.802587-12.719723l-5.137608 0.016573a12.761155 12.761155 0 0 0-12.719723 12.810874l0.298313 86.179229a12.761155 12.761155 0 0 0 12.810874 12.711437l5.137608-0.016573a12.761155 12.761155 0 0 0 12.711436-12.802588l-0.298313-86.179229z" fill="#C8D9E5" p-id="6331"></path><path d="M407.575472 558.807075m13.754777-0.144045l2.154363-0.022561q13.754777-0.144045 13.898821 13.610732l0.895509 85.511623q0.144045 13.754777-13.610732 13.898822l-2.154363 0.022561q-13.754777 0.144045-13.898821-13.610732l-0.895509-85.511623q-0.144045-13.754777 13.610732-13.898822Z" fill="#E2F0FA" p-id="6332"></path><path d="M587.137906 558.425309m13.921239-0.024298l0.994375-0.001735q13.921239-0.024297 13.945536 13.896942l0.149543 85.681911q0.024297 13.921239-13.896942 13.945536l-0.994374 0.001735q-13.921239 0.024297-13.945536-13.896941l-0.149543-85.681911q-0.024297-13.921239 13.896941-13.945537Z" fill="#E2F0FA" p-id="6333"></path><path d="M497.714005 560.028337m12.761078-0.044544l5.137576-0.017934q12.761077-0.044545 12.805622 12.716533l0.300822 86.178704q0.044545 12.761077-12.716533 12.805622l-5.137576 0.017934q-12.761077 0.044545-12.805622-12.716533l-0.300822-86.178704q-0.044545-12.761077 12.716533-12.805622Z" fill="#E2F0FA" p-id="6334"></path></svg>